{
  "source": "C:\\Users\\Peter\\Desktop\\stuff\\MIUN\\quantitative_research\\video_compression\\videos\\BVI-HD\\BVI-HD_CDVL_videos\\ORIG\\TreeGrassFamily_1920x1080_30fps.mp4",
  "output": "C:\\Users\\Peter\\Desktop\\stuff\\MIUN\\quantitative_research\\video_compression\\compressed_videos\\BVI-HD\\av1\\4\\TreeGrassFamily_1920x1080_30fps_av1.mkv",
  "codec": "av1",
  "ok": "Input #0, mov,mp4,m4a,3gp,3g2,mj2, from 'C:\\Users\\Peter\\Desktop\\stuff\\MIUN\\quantitative_research\\video_compression\\videos\\BVI-HD\\BVI-HD_CDVL_videos\\ORIG\\TreeGrassFamily_1920x1080_30fps.mp4':\n  Metadata:\n    major_brand     : isom\n    minor_version   : 512\n    compatible_brands: isomiso2avc1mp41\n    encoder         : Lavf54.28.101\n  Duration: 00:00:05.00, start: 0.000000, bitrate: 331787 kb/s\n  Stream #0:0[0x1](und): Video: h264 (High 4:4:4 Predictive) (avc1 / 0x31637661), yuv420p(progressive), 1920x1080, 331784 kb/s, 30 fps, 30 tbr, 30 tbn (default)\n    Metadata:\n      handler_name    : VideoHandler\n      vendor_id       : [0][0][0][0]\n[out#0/matroska @ 000002ab2dea8f00] Codec AVOption b:a (set bitrate (in bits/s)) has not been used for any stream. The most likely reason is either wrong type (e.g. a video option with no video streams) or that it is a private option of some decoder which was not actually used for any stream.\nStream mapping:\n  Stream #0:0 -> #0:0 (h264 (native) -> av1 (libsvtav1))\nPress [q] to stop, [?] for help\nSvt[info]: -------------------------------------------\nSvt[info]: SVT [version]:\tSVT-AV1 Encoder Lib v3.1.0-19-g6ecfe8ec\nSvt[info]: SVT [build]  :\tGCC 15.2.0\t 64 bit\nSvt[info]: LIB Build date: Aug 17 2025 11:37:13\nSvt[info]: -------------------------------------------\nSvt[info]: Level of Parallelism: 5\nSvt[info]: Number of PPCS 93\nSvt[info]: [asm level on system : up to avx2]\nSvt[info]: [asm level selected : up to avx2]\nSvt[info]: -------------------------------------------\nSvt[info]: SVT [config]: main profile\ttier (auto)\tlevel (auto)\nSvt[info]: SVT [config]: width / height / fps numerator / fps denominator \t\t: 1920 / 1080 / 30 / 1\nSvt[info]: SVT [config]: bit-depth / color format \t\t\t\t\t: 8 / YUV420\nSvt[info]: SVT [config]: preset / tune / pred struct \t\t\t\t\t: 4 / PSNR / random access\nSvt[info]: SVT [config]: gop size / mini-gop size / key-frame type \t\t\t: 161 / 16 / key frame\nSvt[info]: SVT [config]: BRC mode / target bitrate (kbps)\t\t\t\t: VBR / 4000 \nSvt[info]: SVT [config]: AQ mode / Variance Boost \t\t\t\t\t: 2 / 0\nSvt[info]: SVT [config]: sharpness / luminance-based QP bias \t\t\t\t: 0 / 0\nSvt[info]: SVT [config]: QP scale compress strength \t\t\t\t\t: 0\nSvt[info]: -------------------------------------------\nOutput #0, matroska, to 'C:\\Users\\Peter\\Desktop\\stuff\\MIUN\\quantitative_research\\video_compression\\compressed_videos\\BVI-HD\\av1\\4\\TreeGrassFamily_1920x1080_30fps_av1.mkv':\n  Metadata:\n    major_brand     : isom\n    minor_version   : 512\n    compatible_brands: isomiso2avc1mp41\n    encoder         : Lavf62.3.100\n  Stream #0:0(und): Video: av1 (AV01 / 0x31305641), yuv420p(tv, progressive), 1920x1080, q=2-31, 4000 kb/s, 30 fps, 1k tbn (default)\n    Metadata:\n      encoder         : Lavc62.11.100 libsvtav1\n      handler_name    : VideoHandler\n      vendor_id       : [0][0][0][0]\n    Side data:\n      cpb: bitrate max/min/avg: 0/0/4000000 buffer size: 4000000 vbv_delay: N/A\nframe=    0 fps=0.0 q=0.0 size=       0KiB time=N/A bitrate=N/A speed=N/A elapsed=0:00:01.64    \nframe=    0 fps=0.0 q=0.0 size=       0KiB time=N/A bitrate=N/A speed=N/A elapsed=0:00:02.29    \nframe=    0 fps=0.0 q=0.0 size=       0KiB time=N/A bitrate=N/A speed=N/A elapsed=0:00:02.83    \nframe=    0 fps=0.0 q=0.0 size=       0KiB time=N/A bitrate=N/A speed=N/A elapsed=0:00:03.46    \nframe=    0 fps=0.0 q=0.0 size=       0KiB time=N/A bitrate=N/A speed=N/A elapsed=0:00:04.10    \nframe=    0 fps=0.0 q=0.0 size=       0KiB time=N/A bitrate=N/A speed=N/A elapsed=0:00:04.70    \nframe=    0 fps=0.0 q=0.0 size=       0KiB time=N/A bitrate=N/A speed=N/A elapsed=0:00:05.27    \nframe=    0 fps=0.0 q=0.0 size=       0KiB time=N/A bitrate=N/A speed=N/A elapsed=0:00:05.84    \nframe=    1 fps=0.2 q=20.0 size=       1KiB time=N/A bitrate=N/A speed=N/A elapsed=0:00:06.39    \nframe=    1 fps=0.1 q=20.0 size=       1KiB time=00:00:00.00 bitrate=N/A speed=   0x elapsed=0:00:06.96    \nframe=    1 fps=0.1 q=20.0 size=       1KiB time=00:00:00.00 bitrate=N/A speed=   0x elapsed=0:00:07.50    \nframe=    1 fps=0.1 q=20.0 size=       1KiB time=00:00:00.00 bitrate=N/A speed=   0x elapsed=0:00:08.07    \nframe=    4 fps=0.5 q=44.0 size=       1KiB time=00:00:00.10 bitrate=  57.0kbits/s speed=0.0116x elapsed=0:00:08.62    \nframe=    7 fps=0.8 q=40.0 size=       1KiB time=00:00:00.20 bitrate=  28.5kbits/s speed=0.0218x elapsed=0:00:09.17    \nframe=    9 fps=0.9 q=37.0 size=       1KiB time=00:00:00.26 bitrate=  21.4kbits/s speed=0.0273x elapsed=0:00:09.77    \nframe=   11 fps=1.1 q=40.0 size=       1KiB time=00:00:00.33 bitrate=  17.1kbits/s speed=0.0322x elapsed=0:00:10.34    \nframe=   13 fps=1.2 q=38.0 size=       1KiB time=00:00:00.40 bitrate=  14.3kbits/s speed=0.0367x elapsed=0:00:10.89    \nframe=   17 fps=1.5 q=31.0 size=       1KiB time=00:00:00.53 bitrate=  10.7kbits/s speed=0.0465x elapsed=0:00:11.47    \nframe=   20 fps=1.7 q=44.0 size=       1KiB time=00:00:00.63 bitrate=   9.0kbits/s speed=0.0527x elapsed=0:00:12.01    \nframe=   22 fps=1.8 q=44.0 size=       1KiB time=00:00:00.70 bitrate=   8.1kbits/s speed=0.0558x elapsed=0:00:12.53    \nframe=   24 fps=1.8 q=44.0 size=       1KiB time=00:00:00.76 bitrate=   7.4kbits/s speed=0.0586x elapsed=0:00:13.07    \nframe=   28 fps=2.1 q=45.0 size=       1KiB time=00:00:00.90 bitrate=   6.3kbits/s speed=0.066x elapsed=0:00:13.63    \nframe=   33 fps=2.3 q=30.0 size=       1KiB time=00:00:01.03 bitrate=   5.5kbits/s speed=0.0729x elapsed=0:00:14.16    \nframe=   36 fps=2.4 q=45.0 size=       1KiB time=00:00:01.16 bitrate=   4.9kbits/s speed=0.0794x elapsed=0:00:14.69    \nframe=   38 fps=2.5 q=45.0 size=       1KiB time=00:00:01.23 bitrate=   4.6kbits/s speed=0.0811x elapsed=0:00:15.21    \nframe=   40 fps=2.5 q=45.0 size=       1KiB time=00:00:01.30 bitrate=   4.4kbits/s speed=0.0825x elapsed=0:00:15.76    \nframe=   43 fps=2.6 q=42.0 size=       1KiB time=00:00:01.40 bitrate=   4.1kbits/s speed=0.0859x elapsed=0:00:16.30    \nframe=   48 fps=2.9 q=49.0 size=       1KiB time=00:00:01.56 bitrate=   3.6kbits/s speed=0.0931x elapsed=0:00:16.82    \nframe=   51 fps=2.9 q=46.0 size=       1KiB time=00:00:01.66 bitrate=   3.4kbits/s speed=0.0961x elapsed=0:00:17.34    \nframe=   57 fps=3.2 q=38.0 size=       1KiB time=00:00:01.86 bitrate=   3.1kbits/s speed=0.105x elapsed=0:00:17.86    \nframe=   57 fps=3.1 q=38.0 size=       1KiB time=00:00:01.86 bitrate=   3.1kbits/s speed=0.101x elapsed=0:00:18.41    \nframe=   61 fps=3.2 q=43.0 size=       1KiB time=00:00:02.00 bitrate=   2.9kbits/s speed=0.105x elapsed=0:00:18.95    \nframe=   65 fps=3.3 q=31.0 size=       1KiB time=00:00:02.13 bitrate=   2.7kbits/s speed=0.109x elapsed=0:00:19.51    \nframe=   71 fps=3.5 q=48.0 size=       1KiB time=00:00:02.26 bitrate=   2.5kbits/s speed=0.113x elapsed=0:00:20.08    \nframe=   73 fps=3.5 q=42.0 size=       1KiB time=00:00:02.40 bitrate=   2.4kbits/s speed=0.116x elapsed=0:00:20.62    \nframe=   77 fps=3.6 q=44.0 size=       1KiB time=00:00:02.53 bitrate=   2.3kbits/s speed=0.12x elapsed=0:00:21.14    \nframe=   81 fps=3.7 q=35.0 size=       1KiB time=00:00:02.60 bitrate=   2.2kbits/s speed=0.12x elapsed=0:00:21.66    \nframe=   85 fps=3.8 q=47.0 size=       1KiB time=00:00:02.80 bitrate=   2.0kbits/s speed=0.126x elapsed=0:00:22.18    \nframe=   89 fps=3.9 q=44.0 size=       1KiB time=00:00:02.93 bitrate=   1.9kbits/s speed=0.129x elapsed=0:00:22.72    \nframe=   91 fps=3.9 q=48.0 size=       1KiB time=00:00:03.00 bitrate=   1.9kbits/s speed=0.129x elapsed=0:00:23.24    \nframe=   93 fps=3.9 q=45.0 size=       1KiB time=00:00:03.06 bitrate=   1.9kbits/s speed=0.129x elapsed=0:00:23.80    \nframe=   99 fps=4.1 q=49.0 size=       1KiB time=00:00:03.26 bitrate=   1.7kbits/s speed=0.134x elapsed=0:00:24.34    \nframe=  105 fps=4.2 q=45.0 size=       1KiB time=00:00:03.46 bitrate=   1.6kbits/s speed=0.139x elapsed=0:00:24.90    \nframe=  105 fps=4.1 q=45.0 size=       1KiB time=00:00:03.46 bitrate=   1.6kbits/s speed=0.136x elapsed=0:00:25.40    \nframe=  109 fps=4.2 q=45.0 size=       1KiB time=00:00:03.60 bitrate=   1.6kbits/s speed=0.139x elapsed=0:00:25.97    \nframe=  113 fps=4.3 q=37.0 size=       1KiB time=00:00:03.73 bitrate=   1.5kbits/s speed=0.141x elapsed=0:00:26.51    \nframe=  117 fps=4.3 q=48.0 size=       1KiB time=00:00:03.86 bitrate=   1.5kbits/s speed=0.143x elapsed=0:00:27.03    \nframe=  121 fps=4.4 q=44.0 size=       1KiB time=00:00:04.00 bitrate=   1.4kbits/s speed=0.145x elapsed=0:00:27.57    \nframe=  123 fps=4.4 q=49.0 size=       1KiB time=00:00:04.06 bitrate=   1.4kbits/s speed=0.144x elapsed=0:00:28.14    \nframe=  127 fps=4.4 q=50.0 size=       1KiB time=00:00:04.20 bitrate=   1.4kbits/s speed=0.146x elapsed=0:00:28.70    \nframe=  131 fps=4.5 q=51.0 size=       1KiB time=00:00:04.33 bitrate=   1.3kbits/s speed=0.148x elapsed=0:00:29.21    \nframe=  137 fps=4.6 q=47.0 size=       1KiB time=00:00:04.53 bitrate=   1.3kbits/s speed=0.152x elapsed=0:00:29.73    \nframe=  139 fps=4.6 q=51.0 size=       1KiB time=00:00:04.60 bitrate=   1.2kbits/s speed=0.152x elapsed=0:00:30.27    \nframe=  150 fps=4.9 q=51.0 size=       1KiB time=00:00:04.73 bitrate=   1.2kbits/s speed=0.154x elapsed=0:00:30.81    \n[out#0/matroska @ 000002ab2dea8f00] video:2814KiB audio:0KiB subtitle:0KiB other streams:0KiB global headers:0KiB muxing overhead: 0.051075%\nframe=  150 fps=4.9 q=51.0 Lsize=    2816KiB time=00:00:04.96 bitrate=4644.6kbits/s speed=0.161x elapsed=0:00:30.85    \n",
  "seconds": 31.409438610076904,
  "probe_out": {}
}